<svg width="321" height="253" viewBox="0 0 321 253" fill="none" xmlns="http://www.w3.org/2000/svg">
<g clip-path="url(#clip0_45_2)">
<path d="M292.194 230.962C286.04 237.576 278.989 243.287 271.249 247.926C271.071 248.035 270.891 248.138 270.71 248.245L258.179 237.111C258.31 236.988 258.456 236.85 258.613 236.699C267.95 227.798 314.303 165.569 317.392 150.415C317.179 151.677 320.179 201.187 292.194 230.962Z" fill="#1F2937"/>
<path d="M273.667 250.074C273.43 250.131 273.189 250.184 272.947 250.232L263.546 241.879C263.73 241.815 263.944 241.739 264.19 241.654C268.223 240.22 280.237 235.892 292.193 230.962C305.04 225.662 317.825 219.674 320.574 215.838C319.984 216.73 301.815 243.755 273.667 250.074Z" fill="#1F2937"/>
<path d="M292.02 66.26H290.681V29.4417C290.681 26.6433 290.132 23.8723 289.066 21.2869C287.999 18.7016 286.435 16.3524 284.464 14.3737C282.493 12.3949 280.153 10.8252 277.577 9.75435C275.002 8.68345 272.242 8.13226 269.454 8.13226H191.75C188.963 8.13226 186.202 8.68343 183.627 9.75433C181.052 10.8252 178.711 12.3949 176.74 14.3736C174.769 16.3524 173.206 18.7015 172.139 21.2869C171.072 23.8722 170.523 26.6432 170.523 29.4416V231.43C170.523 234.228 171.072 236.999 172.139 239.584C173.206 242.17 174.769 244.519 176.74 246.498C178.711 248.476 181.051 250.046 183.627 251.117C186.202 252.188 188.963 252.739 191.75 252.739H269.454C272.242 252.739 275.002 252.188 277.577 251.117C280.153 250.046 282.493 248.477 284.464 246.498C286.435 244.519 287.999 242.17 289.065 239.584C290.132 236.999 290.681 234.228 290.681 231.43V92.4679H292.02V66.26Z" fill="#3F3D56"/>
<path d="M286.163 29.5881V231.282C286.163 233.372 285.753 235.441 284.956 237.372C284.159 239.303 282.991 241.057 281.519 242.534C280.046 244.012 278.298 245.184 276.375 245.983C274.451 246.782 272.39 247.193 270.308 247.192H192.23C190.149 247.193 188.088 246.781 186.165 245.982C184.242 245.182 182.495 244.01 181.023 242.533C179.551 241.055 178.384 239.301 177.587 237.371C176.791 235.441 176.381 233.372 176.381 231.282V29.5881C176.381 27.4987 176.791 25.4297 177.587 23.4993C178.384 21.5689 179.551 19.8148 181.023 18.3374C182.495 16.86 184.242 15.688 186.165 14.8885C188.088 14.089 190.149 13.6776 192.23 13.6777H201.705C201.24 14.8258 201.063 16.071 201.19 17.3038C201.317 18.5366 201.743 19.7192 202.432 20.7477C203.121 21.7762 204.051 22.6191 205.14 23.2021C206.23 23.7851 207.445 24.0904 208.68 24.0913H253.194C254.43 24.0924 255.646 23.7884 256.737 23.2059C257.827 22.6234 258.758 21.7805 259.448 20.7514C260.137 19.7223 260.563 18.5387 260.689 17.3051C260.815 16.0715 260.637 14.8257 260.169 13.6777H270.308C272.39 13.677 274.451 14.0879 276.375 14.8872C278.298 15.6864 280.046 16.8582 281.519 18.3357C282.991 19.8132 284.159 21.5674 284.956 23.4981C285.753 25.4288 286.163 27.4982 286.163 29.5881Z" fill="black"/>
<path d="M261.876 134.399H193.247C192.045 134.398 190.893 133.918 190.043 133.064C189.193 132.211 188.715 131.054 188.714 129.848V127.582C188.715 126.375 189.193 125.219 190.043 124.365C190.893 123.512 192.045 123.032 193.247 123.031H261.876C263.078 123.032 264.23 123.512 265.08 124.365C265.93 125.219 266.408 126.375 266.409 127.582V129.848C266.408 131.054 265.93 132.211 265.08 133.064C264.23 133.918 263.078 134.398 261.876 134.399Z" fill="#27272A"/>
<path d="M261.876 153.928H193.247C192.045 153.927 190.893 153.447 190.043 152.593C189.193 151.74 188.715 150.583 188.714 149.377V147.111C188.715 145.904 189.193 144.748 190.043 143.894C190.893 143.041 192.045 142.561 193.247 142.56H261.876C263.078 142.561 264.23 143.041 265.08 143.894C265.93 144.748 266.408 145.904 266.409 147.111V149.377C266.408 150.583 265.93 151.74 265.08 152.593C264.23 153.447 263.078 153.927 261.876 153.928V153.928Z" fill="#27272A"/>
<path d="M265.309 130.031H196.68C195.418 130.03 194.208 129.526 193.316 128.63C192.423 127.734 191.921 126.519 191.92 125.252V122.987C191.921 121.72 192.423 120.505 193.316 119.609C194.208 118.713 195.418 118.209 196.68 118.208H265.309C266.571 118.209 267.781 118.713 268.673 119.609C269.566 120.505 270.068 121.72 270.069 122.987V125.252C270.068 126.519 269.566 127.734 268.673 128.63C267.781 129.526 266.571 130.03 265.309 130.031V130.031ZM196.68 119.118C195.659 119.119 194.679 119.527 193.957 120.253C193.234 120.978 192.828 121.961 192.827 122.987V125.252C192.828 126.278 193.234 127.261 193.957 127.987C194.679 128.712 195.659 129.12 196.68 129.121H265.309C266.33 129.12 267.31 128.712 268.032 127.987C268.755 127.261 269.161 126.278 269.162 125.252V122.987C269.161 121.961 268.755 120.978 268.032 120.253C267.31 119.527 266.33 119.119 265.309 119.118H196.68Z" fill="white"/>
<path d="M265.309 149.56H196.68C195.418 149.559 194.208 149.055 193.316 148.159C192.423 147.263 191.921 146.048 191.92 144.781V142.516C191.921 141.249 192.423 140.034 193.316 139.138C194.208 138.242 195.418 137.738 196.68 137.737H265.309C266.571 137.738 267.781 138.242 268.673 139.138C269.566 140.034 270.068 141.249 270.069 142.516V144.781C270.068 146.048 269.566 147.263 268.673 148.159C267.781 149.055 266.571 149.559 265.309 149.56V149.56ZM196.68 138.647C195.659 138.648 194.679 139.056 193.957 139.782C193.234 140.507 192.828 141.49 192.827 142.516V144.781C192.828 145.807 193.234 146.79 193.957 147.516C194.679 148.241 195.659 148.649 196.68 148.65H265.309C266.33 148.649 267.31 148.241 268.032 147.516C268.755 146.79 269.161 145.807 269.162 144.781V142.516C269.161 141.49 268.755 140.507 268.032 139.782C267.31 139.056 266.33 138.648 265.309 138.647H196.68Z" fill="white"/>
<path d="M286.163 29.5881V73.4593C279.219 75.2933 271.948 75.5037 264.91 74.0744C257.872 72.645 251.255 69.6141 245.567 65.2146C239.879 60.8152 235.273 55.1645 232.102 48.6974C228.93 42.2303 227.279 35.1191 227.275 27.9109C227.275 26.6243 227.327 25.3511 227.43 24.0913H253.194C254.43 24.0924 255.646 23.7884 256.737 23.2059C257.827 22.6234 258.758 21.7805 259.448 20.7514C260.137 19.7223 260.563 18.5387 260.689 17.3051C260.815 16.0715 260.637 14.8257 260.169 13.6777H270.308C272.39 13.677 274.451 14.0879 276.375 14.8872C278.299 15.6864 280.046 16.8582 281.519 18.3357C282.991 19.8132 284.159 21.5674 284.956 23.4981C285.753 25.4288 286.163 27.4982 286.163 29.5881V29.5881Z" fill="#27272A"/>
<path d="M215.832 244.453C215.832 245.377 215.798 246.291 215.723 247.192H192.23C190.149 247.193 188.088 246.781 186.165 245.982C184.242 245.182 182.495 244.01 181.023 242.533C179.551 241.055 178.384 239.301 177.587 237.371C176.791 235.44 176.381 233.371 176.381 231.282V209.708C181.305 209.065 186.31 209.483 191.061 210.935C195.812 212.386 200.2 214.837 203.933 218.125C207.666 221.413 210.658 225.461 212.71 230.001C214.762 234.541 215.826 239.467 215.832 244.453H215.832Z" fill="url(#paint0_linear_45_2)"/>
<path d="M26.3516 206.599C27.0117 206.89 27.7601 206.907 28.4325 206.645C29.1049 206.383 29.6464 205.865 29.9384 205.203L51.1023 157.051C51.5867 155.949 51.7347 154.728 51.5276 153.542C51.3205 152.355 50.7676 151.257 49.9388 150.386C49.11 149.515 48.0426 148.911 46.8715 148.649C45.7004 148.387 44.4782 148.48 43.3596 148.915H43.3595C42.0671 149.411 40.9856 150.34 40.2991 151.546C40.1899 151.737 40.0908 151.933 40.0024 152.134L18.8384 200.286C18.6942 200.614 18.6158 200.967 18.6076 201.326C18.5994 201.685 18.6617 202.041 18.7908 202.376C18.92 202.71 19.1135 203.016 19.3603 203.275C19.607 203.534 19.9023 203.742 20.2292 203.887L26.3516 206.599Z" fill="url(#paint1_linear_45_2)"/>
<path d="M50.2335 176.82L29.2997 172.149L34.481 158.389C35.3637 155.026 37.4179 152.092 40.2709 150.119C43.124 148.146 46.587 147.265 50.0318 147.635L50.2335 147.658L50.2335 176.82Z" fill="#1F2937"/>
<path d="M92.5164 207.287C91.9007 207.286 91.2985 207.106 90.7826 206.769C90.2667 206.431 89.8592 205.951 89.6094 205.386L68.4455 157.235C67.7724 155.703 67.7099 153.97 68.2707 152.393C68.8315 150.816 69.973 149.515 71.4604 148.757C72.9478 147.999 74.6679 147.842 76.2669 148.319C77.8659 148.796 79.2221 149.869 80.0566 151.319V151.319C80.1738 151.524 80.2802 151.735 80.3751 151.951L101.539 200.102C101.879 200.875 101.899 201.752 101.594 202.54C101.29 203.328 100.687 203.962 99.9165 204.303L93.5865 207.107L93.5833 207.1C93.2412 207.224 92.8802 207.287 92.5164 207.287V207.287Z" fill="url(#paint2_linear_45_2)"/>
<path d="M63.2413 190.752C62.52 190.753 61.8286 191.041 61.3186 191.553C60.8086 192.065 60.5217 192.759 60.5209 193.483V249.472C60.5217 250.196 60.8086 250.891 61.3186 251.403C61.8286 251.914 62.52 252.202 63.2413 252.203H69.9331C70.6543 252.202 71.3458 251.914 71.8558 251.403C72.3658 250.891 72.6526 250.196 72.6534 249.472V193.483C72.6526 192.759 72.3658 192.065 71.8558 191.553C71.3458 191.041 70.6543 190.753 69.9331 190.752H63.2413Z" fill="url(#paint3_linear_45_2)"/>
<path d="M50.0057 190.752C49.2845 190.753 48.593 191.041 48.0831 191.553C47.5731 192.065 47.2862 192.759 47.2854 193.483V249.472C47.2862 250.196 47.5731 250.891 48.0831 251.403C48.593 251.914 49.2845 252.202 50.0057 252.203H56.6977C57.4189 252.202 58.1104 251.914 58.6203 251.403C59.1303 250.891 59.4172 250.196 59.418 249.472V193.483C59.4172 192.759 59.1303 192.065 58.6203 191.553C58.1104 191.041 57.4189 190.753 56.6977 190.752H50.0057Z" fill="url(#paint4_linear_45_2)"/>
<path d="M59.7696 140.786C72.54 140.786 82.8924 130.394 82.8924 117.574C82.8924 104.754 72.54 94.3615 59.7696 94.3615C46.9991 94.3615 36.6467 104.754 36.6467 117.574C36.6467 130.394 46.9991 140.786 59.7696 140.786Z" fill="url(#paint5_linear_45_2)"/>
<path d="M67.4644 127.318C68.9632 127.276 70.8287 127.224 72.2658 126.17C72.6937 125.843 73.0453 125.427 73.2959 124.949C73.5466 124.472 73.6902 123.945 73.7166 123.406C73.7426 123.023 73.68 122.639 73.5337 122.284C73.3874 121.93 73.1613 121.614 72.8732 121.361C72.1226 120.724 71.0265 120.575 69.8453 120.924L71.0691 111.946L70.1708 111.822L68.7321 122.377L69.4823 122.031C70.352 121.631 71.5459 121.427 72.2879 122.056C72.47 122.221 72.612 122.425 72.7026 122.654C72.7933 122.882 72.8302 123.129 72.8105 123.374C72.7885 123.775 72.6807 124.167 72.4944 124.523C72.3081 124.878 72.0477 125.189 71.7309 125.435C70.6125 126.255 69.1256 126.361 67.4391 126.408L67.4644 127.318Z" fill="white"/>
<path d="M80.3957 112.72H75.512V113.63H80.3957V112.72Z" fill="white"/>
<path d="M64.9805 112.72H60.0967V113.63H64.9805V112.72Z" fill="white"/>
<path d="M82.6809 207.57L74.3585 146.581C74.2692 145.927 73.947 145.327 73.4515 144.893C72.956 144.459 72.3207 144.22 71.6632 144.22H65.3813C65.4074 144.07 65.4211 143.918 65.422 143.765V141.49C65.422 140.765 65.1354 140.071 64.6252 139.559C64.1151 139.046 63.4231 138.759 62.7017 138.759H57.261C56.5395 138.759 55.8476 139.046 55.3374 139.559C54.8273 140.071 54.5407 140.765 54.5406 141.49V143.765C54.5416 143.918 54.5552 144.07 54.5814 144.22H48.2995C47.6419 144.22 47.0066 144.46 46.5111 144.893C46.0156 145.327 45.6934 145.927 45.6041 146.581L37.2817 207.57C37.229 207.956 37.2593 208.35 37.3706 208.723C37.4819 209.097 37.6716 209.442 37.9269 209.736C38.1822 210.03 38.4973 210.265 38.8509 210.427C39.2045 210.588 39.5884 210.672 39.9768 210.672H79.9858C80.3742 210.672 80.7581 210.588 81.1117 210.427C81.4653 210.265 81.7804 210.03 82.0357 209.736C82.2911 209.442 82.4808 209.097 82.592 208.723C82.7033 208.35 82.7336 207.956 82.6809 207.57V207.57Z" fill="#1F2937"/>
<path d="M69.7292 176.82V147.658L69.9309 147.635C73.3799 147.265 76.8468 148.149 79.7017 150.127C82.5566 152.105 84.6101 155.045 85.4892 158.413L90.663 172.149L69.7292 176.82Z" fill="#1F2937"/>
<path d="M58.6051 141.511L42.6116 135.279C39.9963 134.26 37.3664 133.272 34.765 132.218C33.6506 131.828 32.6242 131.22 31.7447 130.431C30.979 129.617 30.4572 128.603 30.239 127.505C29.6842 125.152 29.7845 122.578 29.8241 120.176C29.8548 117.549 30.0702 114.927 30.4687 112.33C31.1671 107.449 32.8073 102.752 35.2974 98.502C39.7827 91.1143 47.5105 85.5561 56.3995 85.9997C60.5148 86.205 64.6537 87.6874 67.7113 90.512C68.0302 90.8946 68.3881 91.2428 68.779 91.5508C69.0508 91.6531 69.3465 91.6731 69.6295 91.6081C70.0026 91.584 70.376 91.5656 70.7497 91.553C72.0465 91.498 73.3456 91.5527 74.6333 91.7165C76.9798 91.971 79.2038 92.898 81.0398 94.387C82.5678 95.7065 83.8111 97.5692 83.939 99.6393C84.0008 100.59 83.8443 101.541 83.4815 102.421C83.1188 103.301 82.5595 104.086 81.8469 104.714C79.9388 106.329 77.2164 105.761 74.9276 105.64L66.5427 105.194L62.2944 104.968C61.4196 104.921 61.4222 106.287 62.2944 106.333L73.586 106.934C75.4006 107.03 77.2707 107.267 79.0867 107.157C80.4821 107.094 81.8145 106.556 82.8649 105.632C83.8242 104.747 84.5388 103.628 84.939 102.383C85.3392 101.139 85.4114 99.8117 85.1485 98.5309C84.5663 95.7374 82.4953 93.4266 80.0675 92.0519C76.764 90.1813 72.8187 90.0021 69.1223 90.2786L69.6032 90.4786C65.4219 85.9735 59.0172 84.0714 53.0045 84.737C46.656 85.4398 41.0095 88.9953 36.9526 93.857C32.4294 99.2775 29.9645 106.036 29.0063 112.987C28.5076 116.739 28.3434 120.529 28.5157 124.31C28.5086 125.978 28.7929 127.634 29.3555 129.204C29.9975 130.731 31.1582 131.98 32.6313 132.729C34.3202 133.548 36.0564 134.264 37.8307 134.874L43.7231 137.169L55.2973 141.679L58.2435 142.827C59.06 143.145 59.4137 141.826 58.6051 141.511Z" fill="white"/>
<path d="M33.458 95.1095C32.0681 95.1095 30.7094 94.6957 29.5537 93.9206C28.3981 93.1454 27.4973 92.0436 26.9654 90.7545C26.4335 89.4654 26.2944 88.0469 26.5655 86.6784C26.8367 85.31 27.506 84.0529 28.4888 83.0663C29.4716 82.0797 30.7238 81.4078 32.087 81.1356C33.4502 80.8633 34.8632 81.0031 36.1473 81.537C37.4315 82.071 38.529 82.9752 39.3012 84.1353C40.0734 85.2955 40.4856 86.6594 40.4856 88.0547C40.4835 89.9251 39.7424 91.7183 38.4249 93.0409C37.1075 94.3634 35.3212 95.1074 33.458 95.1095ZM33.458 82.3654C32.3371 82.3654 31.2414 82.6991 30.3094 83.3243C29.3774 83.9494 28.651 84.838 28.2221 85.8775C27.7931 86.9171 27.6809 88.0611 27.8995 89.1647C28.1182 90.2683 28.658 91.282 29.4506 92.0777C30.2432 92.8734 31.253 93.4152 32.3524 93.6347C33.4517 93.8543 34.5913 93.7416 35.6268 93.311C36.6624 92.8804 37.5475 92.1512 38.1703 91.2156C38.793 90.28 39.1254 89.18 39.1254 88.0547C39.1237 86.5464 38.5261 85.1003 37.4636 84.0337C36.4011 82.9671 34.9606 82.3671 33.458 82.3654V82.3654Z" fill="white"/>
<path d="M150.933 130.136L135.722 118.457L124.089 133.727L139.3 145.406L150.933 130.136Z" fill="#1F2937"/>
<path d="M64.9686 25.8829C67.3719 25.881 69.7423 26.4441 71.8899 27.527C74.0374 28.61 75.9026 30.1828 77.3359 32.1194L86.2177 20.4614L59.568 0L39.1856 26.7529L50.6715 35.5717C51.821 32.71 53.7963 30.2585 56.3439 28.5321C58.8914 26.8057 61.8949 25.8831 64.9686 25.8829V25.8829Z" fill="#1F2937"/>
<path d="M320.547 253H0.45339C0.333143 253 0.217822 252.952 0.132794 252.867C0.0477674 252.781 0 252.666 0 252.545C0 252.424 0.0477674 252.308 0.132794 252.223C0.217822 252.138 0.333143 252.09 0.45339 252.09H320.547C320.667 252.09 320.782 252.138 320.867 252.223C320.952 252.308 321 252.424 321 252.545C321 252.666 320.952 252.781 320.867 252.867C320.782 252.952 320.667 253 320.547 253Z" fill="#27272A"/>
<path d="M242.422 177.478H209.84C208.638 177.476 207.486 176.996 206.636 176.143C205.786 175.29 205.308 174.133 205.306 172.926V170.661C205.308 169.454 205.786 168.297 206.636 167.444C207.486 166.591 208.638 166.111 209.84 166.109H242.422C243.624 166.111 244.776 166.591 245.626 167.444C246.476 168.297 246.954 169.454 246.956 170.661V172.926C246.954 174.133 246.476 175.29 245.626 176.143C244.776 176.996 243.624 177.476 242.422 177.478V177.478Z" fill="url(#paint6_linear_45_2)"/>
<path d="M245.855 173.11H213.273C212.011 173.109 210.801 172.605 209.909 171.709C209.016 170.813 208.514 169.598 208.513 168.331V166.066C208.514 164.799 209.016 163.584 209.909 162.688C210.801 161.792 212.011 161.288 213.273 161.287H245.855C247.117 161.288 248.327 161.792 249.22 162.688C250.112 163.584 250.614 164.799 250.616 166.066V168.331C250.614 169.598 250.112 170.813 249.22 171.709C248.327 172.605 247.117 173.109 245.855 173.11V173.11ZM213.273 162.197C212.252 162.198 211.272 162.606 210.549 163.331C209.827 164.057 209.421 165.04 209.419 166.066V168.331C209.421 169.357 209.827 170.34 210.549 171.065C211.272 171.791 212.252 172.199 213.273 172.2H245.855C246.877 172.199 247.856 171.791 248.579 171.065C249.301 170.34 249.708 169.357 249.709 168.331V166.066C249.708 165.04 249.301 164.057 248.579 163.331C247.856 162.606 246.877 162.198 245.855 162.197H213.273Z" fill="white"/>
</g>
<defs>
<linearGradient id="paint0_linear_45_2" x1="181.099" y1="242.673" x2="216.289" y2="242.673" gradientUnits="userSpaceOnUse">
<stop stop-color="#3B82F6"/>
<stop offset="1" stop-color="#1D4ED8"/>
</linearGradient>
<linearGradient id="paint1_linear_45_2" x1="10.2994" y1="189.32" x2="54.0725" y2="191.032" gradientUnits="userSpaceOnUse">
<stop stop-color="#3B82F6"/>
<stop offset="1" stop-color="#1D4ED8"/>
</linearGradient>
<linearGradient id="paint2_linear_45_2" x1="64.3716" y1="196.204" x2="101.278" y2="197.06" gradientUnits="userSpaceOnUse">
<stop stop-color="#3B82F6"/>
<stop offset="1" stop-color="#1D4ED8"/>
</linearGradient>
<linearGradient id="paint3_linear_45_2" x1="61" y1="233.5" x2="78.5" y2="233.505" gradientUnits="userSpaceOnUse">
<stop stop-color="#3B82F6"/>
<stop offset="1" stop-color="#1D4ED8"/>
</linearGradient>
<linearGradient id="paint4_linear_45_2" x1="42.9144" y1="234.068" x2="64.5" y2="234" gradientUnits="userSpaceOnUse">
<stop stop-color="#3B82F6"/>
<stop offset="1" stop-color="#1D4ED8"/>
</linearGradient>
<linearGradient id="paint5_linear_45_2" x1="28.3235" y1="121.424" x2="88.4037" y2="121.424" gradientUnits="userSpaceOnUse">
<stop stop-color="#3B82F6"/>
<stop offset="1" stop-color="#1D4ED8"/>
</linearGradient>
<linearGradient id="paint6_linear_45_2" x1="205.989" y1="174.69" x2="254.912" y2="172.122" gradientUnits="userSpaceOnUse">
<stop stop-color="#3B82F6"/>
<stop offset="1" stop-color="#1D4ED8"/>
</linearGradient>
<clipPath id="clip0_45_2">
<rect width="321" height="253" fill="white"/>
</clipPath>
</defs>
</svg>
