<svg width="35" height="22" viewBox="0 0 35 22" fill="none" xmlns="http://www.w3.org/2000/svg">
<path fill-rule="evenodd" clip-rule="evenodd" d="M21 11C21 16.5228 16.5228 21 11 21C5.47715 21 1 16.5228 1 11C1 9.39155 1.37974 7.8718 2.05447 6.5255L20.9992 10.8735C20.9997 10.9156 21 10.9578 21 11ZM4.95453 3.03362L17.2184 8.97975L2.57041 5.61791C3.20744 4.62224 4.01605 3.74691 4.95453 3.03362ZM18.0378 8.26569L5.91462 2.38778C6.98445 1.7547 8.18245 1.31528 9.46033 1.1178L18.0378 8.26569ZM11 1C10.9606 1 10.9212 1.00023 10.8818 1.00068L19.3663 8.07103L14.3 1.55732C13.2669 1.19627 12.1564 1 11 1ZM14.8805 0.70403C13.6738 0.248979 12.366 0 11 0C4.92487 0 0 4.92487 0 11C0 17.0751 4.92487 22 11 22C14.6961 22 17.9664 20.1771 19.9609 17.3813L32.647 13.4779L34.4288 12.9297L32.6118 12.5127L21.9611 10.0682C21.6012 5.77806 18.7792 2.18817 14.9127 0.716224L14.8947 0.69303L14.8805 0.70403ZM16.3283 2.53621C18.2896 3.77354 19.7909 5.67378 20.5174 7.9223L16.3283 2.53621ZM21.9995 11.1031C21.983 12.9018 21.5348 14.5974 20.7534 16.0912L30.5712 13.0703L21.9995 11.1031Z" fill="white"/>
</svg>
